<svg width="192" height="60" viewBox="0 0 192 60" fill="none" xmlns="http://www.w3.org/2000/svg">
<rect width="61" height="60" rx="16" fill="url(#paint0_linear_2271_6450)"/>
<path d="M41.4182 14.885L26.8944 14.7707L26.7549 19.8161L39.7499 19.9344L40.2098 20.3918L40.3972 33.386L45.9007 33.3714L45.2502 18.6968L41.4182 14.885Z" fill="white"/>
<path d="M33.3088 23.0374L18.785 22.9231L18.6456 27.9684L31.6405 28.0868L32.1004 28.5442L32.2878 41.5384L37.7914 41.5237L37.1409 26.8491L33.3088 23.0374Z" fill="white"/>
<path d="M25.2014 31.1887L10.6776 31.0744L10.5381 36.1198L23.5331 36.2381L23.993 36.6956L24.1804 49.6897L29.6839 49.6751L29.0334 35.0005L25.2014 31.1887Z" fill="white"/>
<path d="M92.248 48.528C89.784 48.528 87.464 48.08 85.288 47.184C83.144 46.288 81.272 45.056 79.672 43.488C78.072 41.888 76.808 40.032 75.88 37.92C74.984 35.776 74.536 33.472 74.536 31.008C74.536 28.544 75 26.256 75.928 24.144C76.856 22.032 78.136 20.192 79.768 18.624C81.432 17.024 83.368 15.792 85.576 14.928C87.784 14.032 90.152 13.584 92.68 13.584C95.592 13.584 98.232 14.112 100.6 15.168C103 16.224 104.984 17.68 106.552 19.536L101.416 24.672C100.328 23.264 99.048 22.208 97.576 21.504C96.104 20.8 94.44 20.448 92.584 20.448C90.6 20.448 88.824 20.896 87.256 21.792C85.688 22.656 84.456 23.888 83.56 25.488C82.696 27.056 82.264 28.896 82.264 31.008C82.264 33.12 82.696 34.976 83.56 36.576C84.424 38.176 85.608 39.424 87.112 40.32C88.616 41.216 90.344 41.664 92.296 41.664C94.28 41.664 95.96 41.296 97.336 40.56C98.744 39.792 99.816 38.704 100.552 37.296C101.32 35.856 101.704 34.112 101.704 32.064L106.696 35.424L91.576 35.184V28.8H109.384V29.904C109.384 33.968 108.648 37.392 107.176 40.176C105.736 42.928 103.72 45.008 101.128 46.416C98.568 47.824 95.608 48.528 92.248 48.528ZM124.799 48.528C122.272 48.528 120.016 48.016 118.032 46.992C116.08 45.936 114.544 44.48 113.424 42.624C112.304 40.768 111.744 38.672 111.744 36.336C111.744 34 112.288 31.92 113.376 30.096C114.496 28.24 116 26.784 117.888 25.728C119.776 24.672 121.904 24.144 124.272 24.144C126.576 24.144 128.608 24.64 130.368 25.632C132.128 26.624 133.504 28 134.496 29.76C135.52 31.52 136.031 33.536 136.031 35.808C136.031 36.224 136 36.672 135.936 37.152C135.904 37.6 135.824 38.128 135.696 38.736L115.584 38.784V33.744L132.576 33.696L129.408 35.808C129.376 34.464 129.168 33.36 128.784 32.496C128.4 31.6 127.824 30.928 127.056 30.48C126.32 30 125.408 29.76 124.32 29.76C123.168 29.76 122.16 30.032 121.296 30.576C120.464 31.088 119.808 31.824 119.328 32.784C118.88 33.744 118.656 34.912 118.656 36.288C118.656 37.664 118.896 38.848 119.376 39.84C119.888 40.8 120.592 41.552 121.488 42.096C122.416 42.608 123.504 42.864 124.752 42.864C125.904 42.864 126.944 42.672 127.872 42.288C128.8 41.872 129.616 41.264 130.32 40.464L134.352 44.496C133.2 45.84 131.808 46.848 130.176 47.52C128.544 48.192 126.752 48.528 124.799 48.528ZM149.512 48.48C147.304 48.48 145.336 47.952 143.608 46.896C141.912 45.84 140.568 44.4 139.576 42.576C138.616 40.752 138.136 38.672 138.136 36.336C138.136 34 138.616 31.92 139.576 30.096C140.568 28.272 141.912 26.832 143.608 25.776C145.336 24.72 147.304 24.192 149.512 24.192C151.112 24.192 152.552 24.496 153.832 25.104C155.144 25.712 156.216 26.56 157.048 27.648C157.912 28.704 158.392 29.92 158.488 31.296V41.136C158.392 42.512 157.928 43.76 157.096 44.88C156.264 45.968 155.192 46.848 153.88 47.52C152.568 48.16 151.112 48.48 149.512 48.48ZM150.808 41.856C151.864 41.856 152.776 41.632 153.544 41.184C154.312 40.704 154.92 40.048 155.368 39.216C155.816 38.384 156.04 37.424 156.04 36.336C156.04 35.248 155.816 34.304 155.368 33.504C154.952 32.672 154.344 32.016 153.544 31.536C152.776 31.056 151.88 30.816 150.856 30.816C149.832 30.816 148.92 31.056 148.12 31.536C147.352 32.016 146.728 32.672 146.248 33.504C145.8 34.336 145.576 35.28 145.576 36.336C145.576 37.392 145.8 38.336 146.248 39.168C146.696 40 147.32 40.656 148.12 41.136C148.92 41.616 149.816 41.856 150.808 41.856ZM162.952 48H155.752V41.712L156.856 36.048L155.608 30.384V13.152H162.952V48ZM178.491 48.528C176.347 48.528 174.443 48.096 172.779 47.232C171.147 46.336 169.867 45.12 168.939 43.584C168.011 42.016 167.547 40.224 167.547 38.208V24.672H174.891V38.112C174.891 38.912 175.019 39.6 175.275 40.176C175.563 40.752 175.979 41.2 176.523 41.52C177.067 41.84 177.723 42 178.491 42C179.579 42 180.443 41.664 181.083 40.992C181.723 40.288 182.043 39.328 182.043 38.112V24.672H189.387V38.16C189.387 40.208 188.923 42.016 187.995 43.584C187.067 45.12 185.787 46.336 184.155 47.232C182.523 48.096 180.635 48.528 178.491 48.528Z" fill="white"/>
<defs>
<linearGradient id="paint0_linear_2271_6450" x1="30.5" y1="0" x2="30.5" y2="60" gradientUnits="userSpaceOnUse">
<stop stop-color="#E34C37"/>
<stop offset="0.69123" stop-color="#EC6842"/>
<stop offset="1" stop-color="#F57E44"/>
</linearGradient>
</defs>
</svg>
